<?xml version="1.0" encoding="UTF-8" standalone="no"?>
<!DOCTYPE svg PUBLIC "-//W3C//DTD SVG 1.1//EN"
 "http://www.w3.org/Graphics/SVG/1.1/DTD/svg11.dtd">
<!-- Generated by graphviz version 2.40.1 (20161225.0304)
 -->
<!-- Title: G Pages: 1 -->
<svg width="806pt" height="638pt"
 viewBox="0.00 0.00 806.00 638.00" xmlns="http://www.w3.org/2000/svg" xmlns:xlink="http://www.w3.org/1999/xlink">
<g id="graph0" class="graph" transform="scale(1 1) rotate(0) translate(4 634)">
<title>G</title>
<polygon fill="#ffffff" stroke="transparent" points="-4,4 -4,-634 802,-634 802,4 -4,4"/>
<g id="clust1" class="cluster">
<title>cluster_root</title>
<g id="a_clust1"><a xlink:title="eventq_index=0&#10;full_system=false&#10;sim_quantum=0&#10;time_sync_enable=false&#10;time_sync_period=100000000000&#10;time_sync_spin_threshold=100000000">
<path fill="#bab6ae" stroke="#000000" d="M20,-8C20,-8 778,-8 778,-8 784,-8 790,-14 790,-20 790,-20 790,-610 790,-610 790,-616 784,-622 778,-622 778,-622 20,-622 20,-622 14,-622 8,-616 8,-610 8,-610 8,-20 8,-20 8,-14 14,-8 20,-8"/>
<text text-anchor="middle" x="399" y="-606.8" font-family="Arial" font-size="14.00" fill="#000000">root </text>
<text text-anchor="middle" x="399" y="-591.8" font-family="Arial" font-size="14.00" fill="#000000">: Root</text>
</a>
</g>
</g>
<g id="clust2" class="cluster">
<title>cluster_system</title>
<g id="a_clust2"><a xlink:title="boot_osflags=a&#10;cache_line_size=64&#10;eventq_index=0&#10;exit_on_work_items=false&#10;init_param=0&#10;kernel=&#10;kernel_addr_check=true&#10;kernel_extras=&#10;&#10;oad_addr_mask=18446744073709551615&#10;&#10;oad_offset=0&#10;mem_mode=timing&#10;mem_ranges=0:536870911&#10;memories=system.mem_ctrls&#10;mmap_using_noreserve=false&#10;multi_thread=false&#10;&#10;um_work_ids=16&#10;&#13;eadfile=&#10;&#13;edirect_paths=system.redirect_paths0 system.redirect_paths1 system.redirect_paths2 system.redirect_paths3&#10;symbolfile=&#10;thermal_components=&#10;thermal_model=Null&#10;work_begin_ckpt_count=0&#10;work_begin_cpu_id_exit=&#45;1&#10;work_begin_exit_count=0&#10;work_cpus_ckpt_count=0&#10;work_end_ckpt_count=0&#10;work_end_exit_count=0&#10;work_item_id=&#45;1">
<path fill="#e4e7eb" stroke="#000000" d="M28,-16C28,-16 770,-16 770,-16 776,-16 782,-22 782,-28 782,-28 782,-564 782,-564 782,-570 776,-576 770,-576 770,-576 28,-576 28,-576 22,-576 16,-570 16,-564 16,-564 16,-28 16,-28 16,-22 22,-16 28,-16"/>
<text text-anchor="middle" x="399" y="-560.8" font-family="Arial" font-size="14.00" fill="#000000">system </text>
<text text-anchor="middle" x="399" y="-545.8" font-family="Arial" font-size="14.00" fill="#000000">: System</text>
</a>
</g>
</g>
<g id="clust3" class="cluster">
<title>cluster_system_membus</title>
<g id="a_clust3"><a xlink:title="clk_domain=system.clk_domain&#10;default_p_state=UNDEFINED&#10;eventq_index=0&#10;forward_latency=4&#10;frontend_latency=3&#10;max_outstanding_snoops=512&#10;max_routing_table_size=512&#10;p_state_clk_gate_bins=20&#10;p_state_clk_gate_max=1000000000000&#10;p_state_clk_gate_min=1000&#10;point_of_coherency=true&#10;point_of_unification=true&#10;power_model=&#10;&#13;esponse_latency=2&#10;snoop_filter=system.membus.snoop_filter&#10;snoop_response_latency=4&#10;system=system&#10;use_default_range=false&#10;width=16">
<path fill="#6f798c" stroke="#000000" d="M568,-354C568,-354 694,-354 694,-354 700,-354 706,-360 706,-366 706,-366 706,-433 706,-433 706,-439 700,-445 694,-445 694,-445 568,-445 568,-445 562,-445 556,-439 556,-433 556,-433 556,-366 556,-366 556,-360 562,-354 568,-354"/>
<text text-anchor="middle" x="631" y="-429.8" font-family="Arial" font-size="14.00" fill="#000000">membus </text>
<text text-anchor="middle" x="631" y="-414.8" font-family="Arial" font-size="14.00" fill="#000000">: SystemXBar</text>
</a>
</g>
</g>
<g id="clust12" class="cluster">
<title>cluster_system_mem_ctrls</title>
<g id="a_clust12"><a xlink:title="IDD0=0.015&#10;IDD02=0.07&#10;IDD2N=0.002&#10;IDD2N2=0.03&#10;IDD2P0=0.0&#10;IDD2P02=0.0&#10;IDD2P1=0.0006&#10;IDD2P12=0.0008&#10;IDD3N=0.0025&#10;IDD3N2=0.03&#10;IDD3P0=0.0&#10;IDD3P02=0.0&#10;IDD3P1=0.0012&#10;IDD3P12=0.008&#10;IDD4R=0.003&#10;IDD4R2=0.22&#10;IDD4W=0.01&#10;IDD4W2=0.19&#10;IDD5=0.04&#10;IDD52=0.15&#10;IDD6=0.001&#10;IDD62=0.0032&#10;VDD=1.8&#10;VDD2=1.2&#10;activation_limit=4&#10;addr_mapping=RoRaBaCoCh&#10;bank_groups_per_rank=0&#10;banks_per_rank=8&#10;burst_length=8&#10;clk_domain=system.clk_domain&#10;conf_table_reported=true&#10;default_p_state=UNDEFINED&#10;device_bus_width=32&#10;device_rowbuffer_size=1024&#10;device_size=536870912&#10;devices_per_rank=1&#10;dll=false&#10;enable_dram_powerdown=false&#10;eventq_index=0&#10;in_addr_map=true&#10;kvm_map=true&#10;max_accesses_per_row=16&#10;mem_sched_policy=frfcfs&#10;min_writes_per_switch=16&#10;&#10;ull=false&#10;p_state_clk_gate_bins=20&#10;p_state_clk_gate_max=1000000000000&#10;p_state_clk_gate_min=1000&#10;page_policy=open_adaptive&#10;power_model=&#10;qos_masters= &#160;&#160;&#160;&#160;&#160;&#160;&#160;&#160;&#160;&#160;&#160;&#160;&#160;&#160;&#10;qos_policy=Null&#10;qos_priorities=1&#10;qos_priority_escalation=false&#10;qos_q_policy=fifo&#10;qos_syncro_scheduler=false&#10;qos_turnaround_policy=Null&#10;&#13;ange=0:536870911&#10;&#13;anks_per_channel=1&#10;&#13;ead_buffer_size=32&#10;static_backend_latency=10000&#10;static_frontend_latency=10000&#10;tBURST=7500&#10;tCCD_L=0&#10;tCCD_L_WR=0&#10;tCK=1876&#10;tCL=15000&#10;tCS=3750&#10;tRAS=42000&#10;tRCD=15000&#10;tREFI=3900000&#10;tRFC=130000&#10;tRP=15000&#10;tRRD=10000&#10;tRRD_L=0&#10;tRTP=7500&#10;tRTW=3750&#10;tWR=15000&#10;tWTR=7500&#10;tXAW=50000&#10;tXP=7500&#10;tXPDLL=0&#10;tXS=140000&#10;tXSDLL=0&#10;write_buffer_size=64&#10;write_high_thresh_perc=85&#10;write_low_thresh_perc=50">
<path fill="#5e5958" stroke="#000000" d="M36,-163C36,-163 202,-163 202,-163 208,-163 214,-169 214,-175 214,-175 214,-242 214,-242 214,-248 208,-254 202,-254 202,-254 36,-254 36,-254 30,-254 24,-248 24,-242 24,-242 24,-175 24,-175 24,-169 30,-163 36,-163"/>
<text text-anchor="middle" x="119" y="-238.8" font-family="Arial" font-size="14.00" fill="#000000">mem_ctrls </text>
<text text-anchor="middle" x="119" y="-223.8" font-family="Arial" font-size="14.00" fill="#000000">: LPDDR2_S4_1066_1x32</text>
</a>
</g>
</g>
<g id="clust15" class="cluster">
<title>cluster_system_cpu</title>
<g id="a_clust15"><a xlink:title="branchPred=system.cpu.branchPred&#10;checker=Null&#10;clk_domain=system.cpu_clk_domain&#10;cpu_id=0&#10;decodeCycleInput=true&#10;decodeInputBufferSize=3&#10;decodeInputWidth=2&#10;decodeToExecuteForwardDelay=1&#10;default_p_state=UNDEFINED&#10;do_checkpoint_insts=true&#10;do_quiesce=true&#10;do_statistics_insts=true&#10;dtb=system.cpu.dtb&#10;enableIdling=true&#10;eventq_index=0&#10;executeAllowEarlyMemoryIssue=true&#10;executeBranchDelay=1&#10;executeCommitLimit=2&#10;executeCycleInput=true&#10;executeFuncUnits=system.cpu.executeFuncUnits&#10;executeInputBufferSize=7&#10;executeInputWidth=2&#10;executeIssueLimit=2&#10;executeLSQMaxStoreBufferStoresPerCycle=2&#10;executeLSQRequestsQueueSize=1&#10;executeLSQStoreBufferSize=5&#10;executeLSQTransfersQueueSize=2&#10;executeMaxAccessesInMemory=2&#10;executeMemoryCommitLimit=1&#10;executeMemoryIssueLimit=1&#10;executeMemoryWidth=0&#10;executeSetTraceTimeOnCommit=true&#10;executeSetTraceTimeOnIssue=false&#10;fetch1FetchLimit=1&#10;fetch1LineSnapWidth=0&#10;fetch1LineWidth=0&#10;fetch1ToFetch2BackwardDelay=1&#10;fetch1ToFetch2ForwardDelay=1&#10;fetch2CycleInput=true&#10;fetch2InputBufferSize=2&#10;fetch2ToDecodeForwardDelay=1&#10;function_trace=false&#10;function_trace_start=0&#10;interrupts=system.cpu.interrupts&#10;isa=system.cpu.isa&#10;itb=system.cpu.itb&#10;max_insts_all_threads=0&#10;max_insts_any_thread=0&#10;&#10;umThreads=1&#10;p_state_clk_gate_bins=20&#10;p_state_clk_gate_max=1000000000000&#10;p_state_clk_gate_min=1000&#10;power_gating_on_idle=false&#10;power_model=&#10;profile=0&#10;progress_interval=0&#10;pwr_gating_latency=300&#10;simpoint_start_insts=&#10;socket_id=0&#10;switched_out=false&#10;syscallRetryLatency=10000&#10;system=system&#10;threadPolicy=RoundRobin&#10;tracer=system.cpu.tracer&#10;wait_for_remote_gdb=false&#10;workload=system.cpu.workload">
<path fill="#bbc6d9" stroke="#000000" d="M234,-24C234,-24 740,-24 740,-24 746,-24 752,-30 752,-36 752,-36 752,-334 752,-334 752,-340 746,-346 740,-346 740,-346 234,-346 234,-346 228,-346 222,-340 222,-334 222,-334 222,-36 222,-36 222,-30 228,-24 234,-24"/>
<text text-anchor="middle" x="487" y="-330.8" font-family="Arial" font-size="14.00" fill="#000000">cpu </text>
<text text-anchor="middle" x="487" y="-315.8" font-family="Arial" font-size="14.00" fill="#000000">: MinorCPU</text>
</a>
</g>
</g>
<g id="clust17" class="cluster">
<title>cluster_system_cpu_dtb</title>
<g id="a_clust17"><a xlink:title="eventq_index=0&#10;is_stage2=false&#10;size=64&#10;sys=system&#10;walker=system.cpu.dtb.walker">
<path fill="#bab6ae" stroke="#000000" d="M611,-155C611,-155 732,-155 732,-155 738,-155 744,-161 744,-167 744,-167 744,-288 744,-288 744,-294 738,-300 732,-300 732,-300 611,-300 611,-300 605,-300 599,-294 599,-288 599,-288 599,-167 599,-167 599,-161 605,-155 611,-155"/>
<text text-anchor="middle" x="671.5" y="-284.8" font-family="Arial" font-size="14.00" fill="#000000">dtb </text>
<text text-anchor="middle" x="671.5" y="-269.8" font-family="Arial" font-size="14.00" fill="#000000">: ArmDTB</text>
</a>
</g>
</g>
<g id="clust18" class="cluster">
<title>cluster_system_cpu_dtb_walker</title>
<g id="a_clust18"><a xlink:title="clk_domain=system.cpu_clk_domain&#10;default_p_state=UNDEFINED&#10;eventq_index=0&#10;is_stage2=false&#10;&#10;um_squash_per_cycle=2&#10;p_state_clk_gate_bins=20&#10;p_state_clk_gate_max=1000000000000&#10;p_state_clk_gate_min=1000&#10;power_model=&#10;sys=system">
<path fill="#9f9c95" stroke="#000000" d="M619,-163C619,-163 724,-163 724,-163 730,-163 736,-169 736,-175 736,-175 736,-242 736,-242 736,-248 730,-254 724,-254 724,-254 619,-254 619,-254 613,-254 607,-248 607,-242 607,-242 607,-175 607,-175 607,-169 613,-163 619,-163"/>
<text text-anchor="middle" x="671.5" y="-238.8" font-family="Arial" font-size="14.00" fill="#000000">walker </text>
<text text-anchor="middle" x="671.5" y="-223.8" font-family="Arial" font-size="14.00" fill="#000000">: ArmTableWalker</text>
</a>
</g>
</g>
<g id="clust105" class="cluster">
<title>cluster_system_cpu_icache</title>
<g id="a_clust105"><a xlink:title="addr_ranges=0:18446744073709551615&#10;assoc=2&#10;clk_domain=system.cpu_clk_domain&#10;clusivity=mostly_incl&#10;compressor=Null&#10;data_latency=2&#10;default_p_state=UNDEFINED&#10;demand_mshr_reserve=1&#10;eventq_index=0&#10;is_read_only=true&#10;max_miss_count=0&#10;mshrs=4&#10;p_state_clk_gate_bins=20&#10;p_state_clk_gate_max=1000000000000&#10;p_state_clk_gate_min=1000&#10;power_model=&#10;prefetch_on_access=false&#10;prefetcher=Null&#10;&#13;eplacement_policy=system.cpu.icache.replacement_policy&#10;&#13;esponse_latency=2&#10;sequential_access=false&#10;size=32768&#10;system=system&#10;tag_latency=2&#10;tags=system.cpu.icache.tags&#10;tgts_per_mshr=20&#10;warmup_percentage=0&#10;write_allocator=Null&#10;write_buffers=8&#10;writeback_clean=true">
<path fill="#bab6ae" stroke="#000000" d="M301,-32C301,-32 471,-32 471,-32 477,-32 483,-38 483,-44 483,-44 483,-111 483,-111 483,-117 477,-123 471,-123 471,-123 301,-123 301,-123 295,-123 289,-117 289,-111 289,-111 289,-44 289,-44 289,-38 295,-32 301,-32"/>
<text text-anchor="middle" x="386" y="-107.8" font-family="Arial" font-size="14.00" fill="#000000">icache </text>
<text text-anchor="middle" x="386" y="-92.8" font-family="Arial" font-size="14.00" fill="#000000">: L1_ICache</text>
</a>
</g>
</g>
<g id="clust109" class="cluster">
<title>cluster_system_cpu_dcache</title>
<g id="a_clust109"><a xlink:title="addr_ranges=0:18446744073709551615&#10;assoc=2&#10;clk_domain=system.cpu_clk_domain&#10;clusivity=mostly_incl&#10;compressor=Null&#10;data_latency=2&#10;default_p_state=UNDEFINED&#10;demand_mshr_reserve=1&#10;eventq_index=0&#10;is_read_only=false&#10;max_miss_count=0&#10;mshrs=4&#10;p_state_clk_gate_bins=20&#10;p_state_clk_gate_max=1000000000000&#10;p_state_clk_gate_min=1000&#10;power_model=&#10;prefetch_on_access=false&#10;prefetcher=Null&#10;&#13;eplacement_policy=system.cpu.dcache.replacement_policy&#10;&#13;esponse_latency=2&#10;sequential_access=false&#10;size=65536&#10;system=system&#10;tag_latency=2&#10;tags=system.cpu.dcache.tags&#10;tgts_per_mshr=20&#10;warmup_percentage=0&#10;write_allocator=Null&#10;write_buffers=8&#10;writeback_clean=false">
<path fill="#bab6ae" stroke="#000000" d="M532,-32C532,-32 702,-32 702,-32 708,-32 714,-38 714,-44 714,-44 714,-111 714,-111 714,-117 708,-123 702,-123 702,-123 532,-123 532,-123 526,-123 520,-117 520,-111 520,-111 520,-44 520,-44 520,-38 526,-32 532,-32"/>
<text text-anchor="middle" x="617" y="-107.8" font-family="Arial" font-size="14.00" fill="#000000">dcache </text>
<text text-anchor="middle" x="617" y="-92.8" font-family="Arial" font-size="14.00" fill="#000000">: L1_DCache</text>
</a>
</g>
</g>
<g id="clust117" class="cluster">
<title>cluster_system_cpu_itb</title>
<g id="a_clust117"><a xlink:title="eventq_index=0&#10;is_stage2=false&#10;size=64&#10;sys=system&#10;walker=system.cpu.itb.walker">
<path fill="#bab6ae" stroke="#000000" d="M458,-155C458,-155 579,-155 579,-155 585,-155 591,-161 591,-167 591,-167 591,-288 591,-288 591,-294 585,-300 579,-300 579,-300 458,-300 458,-300 452,-300 446,-294 446,-288 446,-288 446,-167 446,-167 446,-161 452,-155 458,-155"/>
<text text-anchor="middle" x="518.5" y="-284.8" font-family="Arial" font-size="14.00" fill="#000000">itb </text>
<text text-anchor="middle" x="518.5" y="-269.8" font-family="Arial" font-size="14.00" fill="#000000">: ArmITB</text>
</a>
</g>
</g>
<g id="clust118" class="cluster">
<title>cluster_system_cpu_itb_walker</title>
<g id="a_clust118"><a xlink:title="clk_domain=system.cpu_clk_domain&#10;default_p_state=UNDEFINED&#10;eventq_index=0&#10;is_stage2=false&#10;&#10;um_squash_per_cycle=2&#10;p_state_clk_gate_bins=20&#10;p_state_clk_gate_max=1000000000000&#10;p_state_clk_gate_min=1000&#10;power_model=&#10;sys=system">
<path fill="#9f9c95" stroke="#000000" d="M466,-163C466,-163 571,-163 571,-163 577,-163 583,-169 583,-175 583,-175 583,-242 583,-242 583,-248 577,-254 571,-254 571,-254 466,-254 466,-254 460,-254 454,-248 454,-242 454,-242 454,-175 454,-175 454,-169 460,-163 466,-163"/>
<text text-anchor="middle" x="518.5" y="-238.8" font-family="Arial" font-size="14.00" fill="#000000">walker </text>
<text text-anchor="middle" x="518.5" y="-223.8" font-family="Arial" font-size="14.00" fill="#000000">: ArmTableWalker</text>
</a>
</g>
</g>
<!-- system_system_port -->
<g id="node1" class="node">
<title>system_system_port</title>
<path fill="#b6b8bc" stroke="#000000" d="M635,-493.5C635,-493.5 707,-493.5 707,-493.5 713,-493.5 719,-499.5 719,-505.5 719,-505.5 719,-517.5 719,-517.5 719,-523.5 713,-529.5 707,-529.5 707,-529.5 635,-529.5 635,-529.5 629,-529.5 623,-523.5 623,-517.5 623,-517.5 623,-505.5 623,-505.5 623,-499.5 629,-493.5 635,-493.5"/>
<text text-anchor="middle" x="671" y="-507.8" font-family="Arial" font-size="14.00" fill="#000000">system_port</text>
</g>
<!-- system_membus_slave -->
<g id="node3" class="node">
<title>system_membus_slave</title>
<path fill="#586070" stroke="#000000" d="M656,-362.5C656,-362.5 686,-362.5 686,-362.5 692,-362.5 698,-368.5 698,-374.5 698,-374.5 698,-386.5 698,-386.5 698,-392.5 692,-398.5 686,-398.5 686,-398.5 656,-398.5 656,-398.5 650,-398.5 644,-392.5 644,-386.5 644,-386.5 644,-374.5 644,-374.5 644,-368.5 650,-362.5 656,-362.5"/>
<text text-anchor="middle" x="671" y="-376.8" font-family="Arial" font-size="14.00" fill="#000000">slave</text>
</g>
<!-- system_system_port&#45;&gt;system_membus_slave -->
<g id="edge1" class="edge">
<title>system_system_port&#45;&gt;system_membus_slave</title>
<path fill="none" stroke="#000000" d="M671,-493.285C671,-471.3856 671,-434.3861 671,-408.7663"/>
<polygon fill="#000000" stroke="#000000" points="674.5001,-408.5603 671,-398.5603 667.5001,-408.5603 674.5001,-408.5603"/>
</g>
<!-- system_membus_master -->
<g id="node2" class="node">
<title>system_membus_master</title>
<path fill="#586070" stroke="#000000" d="M576.5,-362.5C576.5,-362.5 613.5,-362.5 613.5,-362.5 619.5,-362.5 625.5,-368.5 625.5,-374.5 625.5,-374.5 625.5,-386.5 625.5,-386.5 625.5,-392.5 619.5,-398.5 613.5,-398.5 613.5,-398.5 576.5,-398.5 576.5,-398.5 570.5,-398.5 564.5,-392.5 564.5,-386.5 564.5,-386.5 564.5,-374.5 564.5,-374.5 564.5,-368.5 570.5,-362.5 576.5,-362.5"/>
<text text-anchor="middle" x="595" y="-376.8" font-family="Arial" font-size="14.00" fill="#000000">master</text>
</g>
<!-- system_mem_ctrls_port -->
<g id="node4" class="node">
<title>system_mem_ctrls_port</title>
<path fill="#4b4746" stroke="#000000" d="M164,-171.5C164,-171.5 194,-171.5 194,-171.5 200,-171.5 206,-177.5 206,-183.5 206,-183.5 206,-195.5 206,-195.5 206,-201.5 200,-207.5 194,-207.5 194,-207.5 164,-207.5 164,-207.5 158,-207.5 152,-201.5 152,-195.5 152,-195.5 152,-183.5 152,-183.5 152,-177.5 158,-171.5 164,-171.5"/>
<text text-anchor="middle" x="179" y="-185.8" font-family="Arial" font-size="14.00" fill="#000000">port</text>
</g>
<!-- system_membus_master&#45;&gt;system_mem_ctrls_port -->
<g id="edge2" class="edge">
<title>system_membus_master&#45;&gt;system_mem_ctrls_port</title>
<path fill="none" stroke="#000000" d="M564.4853,-379.708C479.4113,-377.2251 244.0986,-368.3832 218,-346 181.113,-314.3642 176.3154,-253.6983 177.0515,-217.9012"/>
<polygon fill="#000000" stroke="#000000" points="180.5585,-217.7717 177.4282,-207.6499 173.5632,-217.5146 180.5585,-217.7717"/>
</g>
<!-- system_cpu_dtb_walker_port -->
<g id="node7" class="node">
<title>system_cpu_dtb_walker_port</title>
<path fill="#7f7c77" stroke="#000000" d="M656,-171.5C656,-171.5 686,-171.5 686,-171.5 692,-171.5 698,-177.5 698,-183.5 698,-183.5 698,-195.5 698,-195.5 698,-201.5 692,-207.5 686,-207.5 686,-207.5 656,-207.5 656,-207.5 650,-207.5 644,-201.5 644,-195.5 644,-195.5 644,-183.5 644,-183.5 644,-177.5 650,-171.5 656,-171.5"/>
<text text-anchor="middle" x="671" y="-185.8" font-family="Arial" font-size="14.00" fill="#000000">port</text>
</g>
<!-- system_membus_slave&#45;&gt;system_cpu_dtb_walker_port -->
<g id="edge6" class="edge">
<title>system_membus_slave&#45;&gt;system_cpu_dtb_walker_port</title>
<path fill="none" stroke="#000000" d="M671,-352.09C671,-312.3133 671,-241.1585 671,-207.7584"/>
<polygon fill="#000000" stroke="#000000" points="667.5001,-352.1861 671,-362.1861 674.5001,-352.1862 667.5001,-352.1861"/>
</g>
<!-- system_cpu_icache_mem_side -->
<g id="node8" class="node">
<title>system_cpu_icache_mem_side</title>
<path fill="#94918b" stroke="#000000" d="M403,-40.5C403,-40.5 463,-40.5 463,-40.5 469,-40.5 475,-46.5 475,-52.5 475,-52.5 475,-64.5 475,-64.5 475,-70.5 469,-76.5 463,-76.5 463,-76.5 403,-76.5 403,-76.5 397,-76.5 391,-70.5 391,-64.5 391,-64.5 391,-52.5 391,-52.5 391,-46.5 397,-40.5 403,-40.5"/>
<text text-anchor="middle" x="433" y="-54.8" font-family="Arial" font-size="14.00" fill="#000000">mem_side</text>
</g>
<!-- system_membus_slave&#45;&gt;system_cpu_icache_mem_side -->
<g id="edge3" class="edge">
<title>system_membus_slave&#45;&gt;system_cpu_icache_mem_side</title>
<path fill="none" stroke="#000000" d="M707.492,-370.9252C720.0161,-365.7021 732.7058,-357.8023 740,-346 751.1572,-327.9473 753.9048,-171.0324 740,-155 707.0544,-117.0134 562.2891,-142.6396 516,-123 490.6325,-112.2371 466.3137,-91.7305 450.6323,-76.7193"/>
<polygon fill="#000000" stroke="#000000" points="706.2063,-367.6689 698.0392,-374.4179 708.6324,-374.2351 706.2063,-367.6689"/>
</g>
<!-- system_cpu_dcache_mem_side -->
<g id="node10" class="node">
<title>system_cpu_dcache_mem_side</title>
<path fill="#94918b" stroke="#000000" d="M634,-40.5C634,-40.5 694,-40.5 694,-40.5 700,-40.5 706,-46.5 706,-52.5 706,-52.5 706,-64.5 706,-64.5 706,-70.5 700,-76.5 694,-76.5 694,-76.5 634,-76.5 634,-76.5 628,-76.5 622,-70.5 622,-64.5 622,-64.5 622,-52.5 622,-52.5 622,-46.5 628,-40.5 634,-40.5"/>
<text text-anchor="middle" x="664" y="-54.8" font-family="Arial" font-size="14.00" fill="#000000">mem_side</text>
</g>
<!-- system_membus_slave&#45;&gt;system_cpu_dcache_mem_side -->
<g id="edge4" class="edge">
<title>system_membus_slave&#45;&gt;system_cpu_dcache_mem_side</title>
<path fill="none" stroke="#000000" d="M707.8713,-375.6474C726.1857,-371.1691 746.7538,-362.5579 758,-346 805.6957,-275.7772 789.9703,-233.6386 758,-155 744.5233,-121.851 713.5794,-93.8563 690.8607,-76.6955"/>
<polygon fill="#000000" stroke="#000000" points="707.0615,-372.2412 698.0019,-377.7344 708.5097,-379.0897 707.0615,-372.2412"/>
</g>
<!-- system_cpu_itb_walker_port -->
<g id="node12" class="node">
<title>system_cpu_itb_walker_port</title>
<path fill="#7f7c77" stroke="#000000" d="M533,-171.5C533,-171.5 563,-171.5 563,-171.5 569,-171.5 575,-177.5 575,-183.5 575,-183.5 575,-195.5 575,-195.5 575,-201.5 569,-207.5 563,-207.5 563,-207.5 533,-207.5 533,-207.5 527,-207.5 521,-201.5 521,-195.5 521,-195.5 521,-183.5 521,-183.5 521,-177.5 527,-171.5 533,-171.5"/>
<text text-anchor="middle" x="548" y="-185.8" font-family="Arial" font-size="14.00" fill="#000000">port</text>
</g>
<!-- system_membus_slave&#45;&gt;system_cpu_itb_walker_port -->
<g id="edge5" class="edge">
<title>system_membus_slave&#45;&gt;system_cpu_itb_walker_port</title>
<path fill="none" stroke="#000000" d="M640.3556,-356.7855C638.5818,-355.7801 636.7907,-354.8425 635,-354 621.7349,-347.7589 613.8367,-355.8732 603,-346 562.4455,-309.0511 551.7915,-240.4314 548.9945,-207.7363"/>
<polygon fill="#000000" stroke="#000000" points="638.6742,-359.8634 648.9966,-362.2509 642.4161,-353.9474 638.6742,-359.8634"/>
</g>
<!-- system_cpu_icache_port -->
<g id="node5" class="node">
<title>system_cpu_icache_port</title>
<path fill="#959ead" stroke="#000000" d="M242,-171.5C242,-171.5 310,-171.5 310,-171.5 316,-171.5 322,-177.5 322,-183.5 322,-183.5 322,-195.5 322,-195.5 322,-201.5 316,-207.5 310,-207.5 310,-207.5 242,-207.5 242,-207.5 236,-207.5 230,-201.5 230,-195.5 230,-195.5 230,-183.5 230,-183.5 230,-177.5 236,-171.5 242,-171.5"/>
<text text-anchor="middle" x="276" y="-185.8" font-family="Arial" font-size="14.00" fill="#000000">icache_port</text>
</g>
<!-- system_cpu_icache_cpu_side -->
<g id="node9" class="node">
<title>system_cpu_icache_cpu_side</title>
<path fill="#94918b" stroke="#000000" d="M309,-40.5C309,-40.5 361,-40.5 361,-40.5 367,-40.5 373,-46.5 373,-52.5 373,-52.5 373,-64.5 373,-64.5 373,-70.5 367,-76.5 361,-76.5 361,-76.5 309,-76.5 309,-76.5 303,-76.5 297,-70.5 297,-64.5 297,-64.5 297,-52.5 297,-52.5 297,-46.5 303,-40.5 309,-40.5"/>
<text text-anchor="middle" x="335" y="-54.8" font-family="Arial" font-size="14.00" fill="#000000">cpu_side</text>
</g>
<!-- system_cpu_icache_port&#45;&gt;system_cpu_icache_cpu_side -->
<g id="edge7" class="edge">
<title>system_cpu_icache_port&#45;&gt;system_cpu_icache_cpu_side</title>
<path fill="none" stroke="#000000" d="M284.2037,-171.285C294.1989,-149.0923 311.1783,-111.3923 322.7302,-85.7431"/>
<polygon fill="#000000" stroke="#000000" points="325.9507,-87.1155 326.866,-76.5603 319.5681,-84.2409 325.9507,-87.1155"/>
</g>
<!-- system_cpu_dcache_port -->
<g id="node6" class="node">
<title>system_cpu_dcache_port</title>
<path fill="#959ead" stroke="#000000" d="M352,-171.5C352,-171.5 426,-171.5 426,-171.5 432,-171.5 438,-177.5 438,-183.5 438,-183.5 438,-195.5 438,-195.5 438,-201.5 432,-207.5 426,-207.5 426,-207.5 352,-207.5 352,-207.5 346,-207.5 340,-201.5 340,-195.5 340,-195.5 340,-183.5 340,-183.5 340,-177.5 346,-171.5 352,-171.5"/>
<text text-anchor="middle" x="389" y="-185.8" font-family="Arial" font-size="14.00" fill="#000000">dcache_port</text>
</g>
<!-- system_cpu_dcache_cpu_side -->
<g id="node11" class="node">
<title>system_cpu_dcache_cpu_side</title>
<path fill="#94918b" stroke="#000000" d="M540,-40.5C540,-40.5 592,-40.5 592,-40.5 598,-40.5 604,-46.5 604,-52.5 604,-52.5 604,-64.5 604,-64.5 604,-70.5 598,-76.5 592,-76.5 592,-76.5 540,-76.5 540,-76.5 534,-76.5 528,-70.5 528,-64.5 528,-64.5 528,-52.5 528,-52.5 528,-46.5 534,-40.5 540,-40.5"/>
<text text-anchor="middle" x="566" y="-54.8" font-family="Arial" font-size="14.00" fill="#000000">cpu_side</text>
</g>
<!-- system_cpu_dcache_port&#45;&gt;system_cpu_dcache_cpu_side -->
<g id="edge8" class="edge">
<title>system_cpu_dcache_port&#45;&gt;system_cpu_dcache_cpu_side</title>
<path fill="none" stroke="#000000" d="M417.339,-171.2273C437.1612,-158.2157 464.0837,-140.0781 487,-123 504.01,-110.3235 522.4022,-95.3845 537.157,-83.0775"/>
<polygon fill="#000000" stroke="#000000" points="539.5359,-85.6504 544.948,-76.5422 535.0372,-80.2874 539.5359,-85.6504"/>
</g>
</g>
</svg>
