<?xml version="1.0" encoding="UTF-8" standalone="no"?>
<!DOCTYPE svg PUBLIC "-//W3C//DTD SVG 1.1//EN"
 "http://www.w3.org/Graphics/SVG/1.1/DTD/svg11.dtd">
<!-- Generated by graphviz version 2.40.1 (20161225.0304)
 -->
<!-- Title: G Pages: 1 -->
<svg width="798pt" height="638pt"
 viewBox="0.00 0.00 798.00 638.00" xmlns="http://www.w3.org/2000/svg" xmlns:xlink="http://www.w3.org/1999/xlink">
<g id="graph0" class="graph" transform="scale(1 1) rotate(0) translate(4 634)">
<title>G</title>
<polygon fill="#ffffff" stroke="transparent" points="-4,4 -4,-634 794,-634 794,4 -4,4"/>
<g id="clust1" class="cluster">
<title>cluster_root</title>
<g id="a_clust1"><a xlink:title="eventq_index=0&#10;full_system=false&#10;sim_quantum=0&#10;time_sync_enable=false&#10;time_sync_period=100000000000&#10;time_sync_spin_threshold=100000000">
<path fill="#bab6ae" stroke="#000000" d="M20,-8C20,-8 770,-8 770,-8 776,-8 782,-14 782,-20 782,-20 782,-610 782,-610 782,-616 776,-622 770,-622 770,-622 20,-622 20,-622 14,-622 8,-616 8,-610 8,-610 8,-20 8,-20 8,-14 14,-8 20,-8"/>
<text text-anchor="middle" x="395" y="-606.8" font-family="Arial" font-size="14.00" fill="#000000">root </text>
<text text-anchor="middle" x="395" y="-591.8" font-family="Arial" font-size="14.00" fill="#000000">: Root</text>
</a>
</g>
</g>
<g id="clust2" class="cluster">
<title>cluster_system</title>
<g id="a_clust2"><a xlink:title="boot_osflags=a&#10;cache_line_size=64&#10;eventq_index=0&#10;exit_on_work_items=false&#10;init_param=0&#10;kernel=&#10;kernel_addr_check=true&#10;kernel_extras=&#10;&#10;oad_addr_mask=18446744073709551615&#10;&#10;oad_offset=0&#10;mem_mode=timing&#10;mem_ranges=0:536870911&#10;memories=system.mem_ctrls&#10;mmap_using_noreserve=false&#10;multi_thread=false&#10;&#10;um_work_ids=16&#10;&#13;eadfile=&#10;&#13;edirect_paths=system.redirect_paths0 system.redirect_paths1 system.redirect_paths2 system.redirect_paths3&#10;symbolfile=&#10;thermal_components=&#10;thermal_model=Null&#10;work_begin_ckpt_count=0&#10;work_begin_cpu_id_exit=&#45;1&#10;work_begin_exit_count=0&#10;work_cpus_ckpt_count=0&#10;work_end_ckpt_count=0&#10;work_end_exit_count=0&#10;work_item_id=&#45;1">
<path fill="#e4e7eb" stroke="#000000" d="M28,-16C28,-16 762,-16 762,-16 768,-16 774,-22 774,-28 774,-28 774,-564 774,-564 774,-570 768,-576 762,-576 762,-576 28,-576 28,-576 22,-576 16,-570 16,-564 16,-564 16,-28 16,-28 16,-22 22,-16 28,-16"/>
<text text-anchor="middle" x="395" y="-560.8" font-family="Arial" font-size="14.00" fill="#000000">system </text>
<text text-anchor="middle" x="395" y="-545.8" font-family="Arial" font-size="14.00" fill="#000000">: System</text>
</a>
</g>
</g>
<g id="clust3" class="cluster">
<title>cluster_system_membus</title>
<g id="a_clust3"><a xlink:title="clk_domain=system.clk_domain&#10;default_p_state=UNDEFINED&#10;eventq_index=0&#10;forward_latency=4&#10;frontend_latency=3&#10;max_outstanding_snoops=512&#10;max_routing_table_size=512&#10;p_state_clk_gate_bins=20&#10;p_state_clk_gate_max=1000000000000&#10;p_state_clk_gate_min=1000&#10;point_of_coherency=true&#10;point_of_unification=true&#10;power_model=&#10;&#13;esponse_latency=2&#10;snoop_filter=system.membus.snoop_filter&#10;snoop_response_latency=4&#10;system=system&#10;use_default_range=false&#10;width=16">
<path fill="#6f798c" stroke="#000000" d="M427,-354C427,-354 553,-354 553,-354 559,-354 565,-360 565,-366 565,-366 565,-433 565,-433 565,-439 559,-445 553,-445 553,-445 427,-445 427,-445 421,-445 415,-439 415,-433 415,-433 415,-366 415,-366 415,-360 421,-354 427,-354"/>
<text text-anchor="middle" x="490" y="-429.8" font-family="Arial" font-size="14.00" fill="#000000">membus </text>
<text text-anchor="middle" x="490" y="-414.8" font-family="Arial" font-size="14.00" fill="#000000">: SystemXBar</text>
</a>
</g>
</g>
<g id="clust12" class="cluster">
<title>cluster_system_mem_ctrls</title>
<g id="a_clust12"><a xlink:title="IDD0=0.015&#10;IDD02=0.07&#10;IDD2N=0.002&#10;IDD2N2=0.03&#10;IDD2P0=0.0&#10;IDD2P02=0.0&#10;IDD2P1=0.0006&#10;IDD2P12=0.0008&#10;IDD3N=0.0025&#10;IDD3N2=0.03&#10;IDD3P0=0.0&#10;IDD3P02=0.0&#10;IDD3P1=0.0012&#10;IDD3P12=0.008&#10;IDD4R=0.003&#10;IDD4R2=0.22&#10;IDD4W=0.01&#10;IDD4W2=0.19&#10;IDD5=0.04&#10;IDD52=0.15&#10;IDD6=0.001&#10;IDD62=0.0032&#10;VDD=1.8&#10;VDD2=1.2&#10;activation_limit=4&#10;addr_mapping=RoRaBaCoCh&#10;bank_groups_per_rank=0&#10;banks_per_rank=8&#10;burst_length=8&#10;clk_domain=system.clk_domain&#10;conf_table_reported=true&#10;default_p_state=UNDEFINED&#10;device_bus_width=32&#10;device_rowbuffer_size=1024&#10;device_size=536870912&#10;devices_per_rank=1&#10;dll=false&#10;enable_dram_powerdown=false&#10;eventq_index=0&#10;in_addr_map=true&#10;kvm_map=true&#10;max_accesses_per_row=16&#10;mem_sched_policy=frfcfs&#10;min_writes_per_switch=16&#10;&#10;ull=false&#10;p_state_clk_gate_bins=20&#10;p_state_clk_gate_max=1000000000000&#10;p_state_clk_gate_min=1000&#10;page_policy=open_adaptive&#10;power_model=&#10;qos_masters= &#160;&#160;&#160;&#160;&#160;&#160;&#160;&#160;&#160;&#160;&#160;&#160;&#160;&#160;&#10;qos_policy=Null&#10;qos_priorities=1&#10;qos_priority_escalation=false&#10;qos_q_policy=fifo&#10;qos_syncro_scheduler=false&#10;qos_turnaround_policy=Null&#10;&#13;ange=0:536870911&#10;&#13;anks_per_channel=1&#10;&#13;ead_buffer_size=32&#10;static_backend_latency=10000&#10;static_frontend_latency=10000&#10;tBURST=7500&#10;tCCD_L=0&#10;tCCD_L_WR=0&#10;tCK=1876&#10;tCL=15000&#10;tCS=3750&#10;tRAS=42000&#10;tRCD=15000&#10;tREFI=3900000&#10;tRFC=130000&#10;tRP=15000&#10;tRRD=10000&#10;tRRD_L=0&#10;tRTP=7500&#10;tRTW=3750&#10;tWR=15000&#10;tWTR=7500&#10;tXAW=50000&#10;tXP=7500&#10;tXPDLL=0&#10;tXS=140000&#10;tXSDLL=0&#10;write_buffer_size=64&#10;write_high_thresh_perc=85&#10;write_low_thresh_perc=50">
<path fill="#5e5958" stroke="#000000" d="M36,-163C36,-163 202,-163 202,-163 208,-163 214,-169 214,-175 214,-175 214,-242 214,-242 214,-248 208,-254 202,-254 202,-254 36,-254 36,-254 30,-254 24,-248 24,-242 24,-242 24,-175 24,-175 24,-169 30,-163 36,-163"/>
<text text-anchor="middle" x="119" y="-238.8" font-family="Arial" font-size="14.00" fill="#000000">mem_ctrls </text>
<text text-anchor="middle" x="119" y="-223.8" font-family="Arial" font-size="14.00" fill="#000000">: LPDDR2_S4_1066_1x32</text>
</a>
</g>
</g>
<g id="clust15" class="cluster">
<title>cluster_system_cpu</title>
<g id="a_clust15"><a xlink:title="branchPred=Null&#10;checker=Null&#10;clk_domain=system.cpu_clk_domain&#10;cpu_id=0&#10;default_p_state=UNDEFINED&#10;do_checkpoint_insts=true&#10;do_quiesce=true&#10;do_statistics_insts=true&#10;dtb=system.cpu.dtb&#10;eventq_index=0&#10;function_trace=false&#10;function_trace_start=0&#10;interrupts=system.cpu.interrupts&#10;isa=system.cpu.isa&#10;itb=system.cpu.itb&#10;max_insts_all_threads=0&#10;max_insts_any_thread=0&#10;&#10;umThreads=1&#10;p_state_clk_gate_bins=20&#10;p_state_clk_gate_max=1000000000000&#10;p_state_clk_gate_min=1000&#10;power_gating_on_idle=false&#10;power_model=&#10;profile=0&#10;progress_interval=0&#10;pwr_gating_latency=300&#10;simpoint_start_insts=&#10;socket_id=0&#10;switched_out=false&#10;syscallRetryLatency=10000&#10;system=system&#10;tracer=system.cpu.tracer&#10;wait_for_remote_gdb=false&#10;workload=system.cpu.workload">
<path fill="#bbc6d9" stroke="#000000" d="M246,-24C246,-24 752,-24 752,-24 758,-24 764,-30 764,-36 764,-36 764,-334 764,-334 764,-340 758,-346 752,-346 752,-346 246,-346 246,-346 240,-346 234,-340 234,-334 234,-334 234,-36 234,-36 234,-30 240,-24 246,-24"/>
<text text-anchor="middle" x="499" y="-330.8" font-family="Arial" font-size="14.00" fill="#000000">cpu </text>
<text text-anchor="middle" x="499" y="-315.8" font-family="Arial" font-size="14.00" fill="#000000">: TimingSimpleCPU</text>
</a>
</g>
</g>
<g id="clust16" class="cluster">
<title>cluster_system_cpu_icache</title>
<g id="a_clust16"><a xlink:title="addr_ranges=0:18446744073709551615&#10;assoc=2&#10;clk_domain=system.cpu_clk_domain&#10;clusivity=mostly_incl&#10;compressor=Null&#10;data_latency=2&#10;default_p_state=UNDEFINED&#10;demand_mshr_reserve=1&#10;eventq_index=0&#10;is_read_only=true&#10;max_miss_count=0&#10;mshrs=4&#10;p_state_clk_gate_bins=20&#10;p_state_clk_gate_max=1000000000000&#10;p_state_clk_gate_min=1000&#10;power_model=&#10;prefetch_on_access=false&#10;prefetcher=Null&#10;&#13;eplacement_policy=system.cpu.icache.replacement_policy&#10;&#13;esponse_latency=2&#10;sequential_access=false&#10;size=32768&#10;system=system&#10;tag_latency=2&#10;tags=system.cpu.icache.tags&#10;tgts_per_mshr=20&#10;warmup_percentage=0&#10;write_allocator=Null&#10;write_buffers=8&#10;writeback_clean=true">
<path fill="#bab6ae" stroke="#000000" d="M254,-32C254,-32 424,-32 424,-32 430,-32 436,-38 436,-44 436,-44 436,-111 436,-111 436,-117 430,-123 424,-123 424,-123 254,-123 254,-123 248,-123 242,-117 242,-111 242,-111 242,-44 242,-44 242,-38 248,-32 254,-32"/>
<text text-anchor="middle" x="339" y="-107.8" font-family="Arial" font-size="14.00" fill="#000000">icache </text>
<text text-anchor="middle" x="339" y="-92.8" font-family="Arial" font-size="14.00" fill="#000000">: L1_ICache</text>
</a>
</g>
</g>
<g id="clust20" class="cluster">
<title>cluster_system_cpu_dtb</title>
<g id="a_clust20"><a xlink:title="eventq_index=0&#10;is_stage2=false&#10;size=64&#10;sys=system&#10;walker=system.cpu.dtb.walker">
<path fill="#bab6ae" stroke="#000000" d="M623,-155C623,-155 744,-155 744,-155 750,-155 756,-161 756,-167 756,-167 756,-288 756,-288 756,-294 750,-300 744,-300 744,-300 623,-300 623,-300 617,-300 611,-294 611,-288 611,-288 611,-167 611,-167 611,-161 617,-155 623,-155"/>
<text text-anchor="middle" x="683.5" y="-284.8" font-family="Arial" font-size="14.00" fill="#000000">dtb </text>
<text text-anchor="middle" x="683.5" y="-269.8" font-family="Arial" font-size="14.00" fill="#000000">: ArmDTB</text>
</a>
</g>
</g>
<g id="clust21" class="cluster">
<title>cluster_system_cpu_dtb_walker</title>
<g id="a_clust21"><a xlink:title="clk_domain=system.cpu_clk_domain&#10;default_p_state=UNDEFINED&#10;eventq_index=0&#10;is_stage2=false&#10;&#10;um_squash_per_cycle=2&#10;p_state_clk_gate_bins=20&#10;p_state_clk_gate_max=1000000000000&#10;p_state_clk_gate_min=1000&#10;power_model=&#10;sys=system">
<path fill="#9f9c95" stroke="#000000" d="M631,-163C631,-163 736,-163 736,-163 742,-163 748,-169 748,-175 748,-175 748,-242 748,-242 748,-248 742,-254 736,-254 736,-254 631,-254 631,-254 625,-254 619,-248 619,-242 619,-242 619,-175 619,-175 619,-169 625,-163 631,-163"/>
<text text-anchor="middle" x="683.5" y="-238.8" font-family="Arial" font-size="14.00" fill="#000000">walker </text>
<text text-anchor="middle" x="683.5" y="-223.8" font-family="Arial" font-size="14.00" fill="#000000">: ArmTableWalker</text>
</a>
</g>
</g>
<g id="clust26" class="cluster">
<title>cluster_system_cpu_itb</title>
<g id="a_clust26"><a xlink:title="eventq_index=0&#10;is_stage2=false&#10;size=64&#10;sys=system&#10;walker=system.cpu.itb.walker">
<path fill="#bab6ae" stroke="#000000" d="M470,-155C470,-155 591,-155 591,-155 597,-155 603,-161 603,-167 603,-167 603,-288 603,-288 603,-294 597,-300 591,-300 591,-300 470,-300 470,-300 464,-300 458,-294 458,-288 458,-288 458,-167 458,-167 458,-161 464,-155 470,-155"/>
<text text-anchor="middle" x="530.5" y="-284.8" font-family="Arial" font-size="14.00" fill="#000000">itb </text>
<text text-anchor="middle" x="530.5" y="-269.8" font-family="Arial" font-size="14.00" fill="#000000">: ArmITB</text>
</a>
</g>
</g>
<g id="clust27" class="cluster">
<title>cluster_system_cpu_itb_walker</title>
<g id="a_clust27"><a xlink:title="clk_domain=system.cpu_clk_domain&#10;default_p_state=UNDEFINED&#10;eventq_index=0&#10;is_stage2=false&#10;&#10;um_squash_per_cycle=2&#10;p_state_clk_gate_bins=20&#10;p_state_clk_gate_max=1000000000000&#10;p_state_clk_gate_min=1000&#10;power_model=&#10;sys=system">
<path fill="#9f9c95" stroke="#000000" d="M478,-163C478,-163 583,-163 583,-163 589,-163 595,-169 595,-175 595,-175 595,-242 595,-242 595,-248 589,-254 583,-254 583,-254 478,-254 478,-254 472,-254 466,-248 466,-242 466,-242 466,-175 466,-175 466,-169 472,-163 478,-163"/>
<text text-anchor="middle" x="530.5" y="-238.8" font-family="Arial" font-size="14.00" fill="#000000">walker </text>
<text text-anchor="middle" x="530.5" y="-223.8" font-family="Arial" font-size="14.00" fill="#000000">: ArmTableWalker</text>
</a>
</g>
</g>
<g id="clust32" class="cluster">
<title>cluster_system_cpu_dcache</title>
<g id="a_clust32"><a xlink:title="addr_ranges=0:18446744073709551615&#10;assoc=2&#10;clk_domain=system.cpu_clk_domain&#10;clusivity=mostly_incl&#10;compressor=Null&#10;data_latency=2&#10;default_p_state=UNDEFINED&#10;demand_mshr_reserve=1&#10;eventq_index=0&#10;is_read_only=false&#10;max_miss_count=0&#10;mshrs=4&#10;p_state_clk_gate_bins=20&#10;p_state_clk_gate_max=1000000000000&#10;p_state_clk_gate_min=1000&#10;power_model=&#10;prefetch_on_access=false&#10;prefetcher=Null&#10;&#13;eplacement_policy=system.cpu.dcache.replacement_policy&#10;&#13;esponse_latency=2&#10;sequential_access=false&#10;size=65536&#10;system=system&#10;tag_latency=2&#10;tags=system.cpu.dcache.tags&#10;tgts_per_mshr=20&#10;warmup_percentage=0&#10;write_allocator=Null&#10;write_buffers=8&#10;writeback_clean=false">
<path fill="#bab6ae" stroke="#000000" d="M515,-32C515,-32 685,-32 685,-32 691,-32 697,-38 697,-44 697,-44 697,-111 697,-111 697,-117 691,-123 685,-123 685,-123 515,-123 515,-123 509,-123 503,-117 503,-111 503,-111 503,-44 503,-44 503,-38 509,-32 515,-32"/>
<text text-anchor="middle" x="600" y="-107.8" font-family="Arial" font-size="14.00" fill="#000000">dcache </text>
<text text-anchor="middle" x="600" y="-92.8" font-family="Arial" font-size="14.00" fill="#000000">: L1_DCache</text>
</a>
</g>
</g>
<!-- system_system_port -->
<g id="node1" class="node">
<title>system_system_port</title>
<path fill="#b6b8bc" stroke="#000000" d="M494,-493.5C494,-493.5 566,-493.5 566,-493.5 572,-493.5 578,-499.5 578,-505.5 578,-505.5 578,-517.5 578,-517.5 578,-523.5 572,-529.5 566,-529.5 566,-529.5 494,-529.5 494,-529.5 488,-529.5 482,-523.5 482,-517.5 482,-517.5 482,-505.5 482,-505.5 482,-499.5 488,-493.5 494,-493.5"/>
<text text-anchor="middle" x="530" y="-507.8" font-family="Arial" font-size="14.00" fill="#000000">system_port</text>
</g>
<!-- system_membus_slave -->
<g id="node3" class="node">
<title>system_membus_slave</title>
<path fill="#586070" stroke="#000000" d="M515,-362.5C515,-362.5 545,-362.5 545,-362.5 551,-362.5 557,-368.5 557,-374.5 557,-374.5 557,-386.5 557,-386.5 557,-392.5 551,-398.5 545,-398.5 545,-398.5 515,-398.5 515,-398.5 509,-398.5 503,-392.5 503,-386.5 503,-386.5 503,-374.5 503,-374.5 503,-368.5 509,-362.5 515,-362.5"/>
<text text-anchor="middle" x="530" y="-376.8" font-family="Arial" font-size="14.00" fill="#000000">slave</text>
</g>
<!-- system_system_port&#45;&gt;system_membus_slave -->
<g id="edge1" class="edge">
<title>system_system_port&#45;&gt;system_membus_slave</title>
<path fill="none" stroke="#000000" d="M530,-493.285C530,-471.3856 530,-434.3861 530,-408.7663"/>
<polygon fill="#000000" stroke="#000000" points="533.5001,-408.5603 530,-398.5603 526.5001,-408.5603 533.5001,-408.5603"/>
</g>
<!-- system_membus_master -->
<g id="node2" class="node">
<title>system_membus_master</title>
<path fill="#586070" stroke="#000000" d="M435.5,-362.5C435.5,-362.5 472.5,-362.5 472.5,-362.5 478.5,-362.5 484.5,-368.5 484.5,-374.5 484.5,-374.5 484.5,-386.5 484.5,-386.5 484.5,-392.5 478.5,-398.5 472.5,-398.5 472.5,-398.5 435.5,-398.5 435.5,-398.5 429.5,-398.5 423.5,-392.5 423.5,-386.5 423.5,-386.5 423.5,-374.5 423.5,-374.5 423.5,-368.5 429.5,-362.5 435.5,-362.5"/>
<text text-anchor="middle" x="454" y="-376.8" font-family="Arial" font-size="14.00" fill="#000000">master</text>
</g>
<!-- system_mem_ctrls_port -->
<g id="node4" class="node">
<title>system_mem_ctrls_port</title>
<path fill="#4b4746" stroke="#000000" d="M162,-171.5C162,-171.5 192,-171.5 192,-171.5 198,-171.5 204,-177.5 204,-183.5 204,-183.5 204,-195.5 204,-195.5 204,-201.5 198,-207.5 192,-207.5 192,-207.5 162,-207.5 162,-207.5 156,-207.5 150,-201.5 150,-195.5 150,-195.5 150,-183.5 150,-183.5 150,-177.5 156,-171.5 162,-171.5"/>
<text text-anchor="middle" x="177" y="-185.8" font-family="Arial" font-size="14.00" fill="#000000">port</text>
</g>
<!-- system_membus_master&#45;&gt;system_mem_ctrls_port -->
<g id="edge2" class="edge">
<title>system_membus_master&#45;&gt;system_mem_ctrls_port</title>
<path fill="none" stroke="#000000" d="M423.2147,-377.8911C362.7629,-372.4983 233.0827,-359.4941 218,-346 181.7675,-313.5837 175.7879,-253.4558 175.7149,-217.9106"/>
<polygon fill="#000000" stroke="#000000" points="179.217,-217.7736 175.8549,-207.7264 172.2177,-217.6773 179.217,-217.7736"/>
</g>
<!-- system_cpu_icache_mem_side -->
<g id="node7" class="node">
<title>system_cpu_icache_mem_side</title>
<path fill="#94918b" stroke="#000000" d="M262,-40.5C262,-40.5 322,-40.5 322,-40.5 328,-40.5 334,-46.5 334,-52.5 334,-52.5 334,-64.5 334,-64.5 334,-70.5 328,-76.5 322,-76.5 322,-76.5 262,-76.5 262,-76.5 256,-76.5 250,-70.5 250,-64.5 250,-64.5 250,-52.5 250,-52.5 250,-46.5 256,-40.5 262,-40.5"/>
<text text-anchor="middle" x="292" y="-54.8" font-family="Arial" font-size="14.00" fill="#000000">mem_side</text>
</g>
<!-- system_membus_slave&#45;&gt;system_cpu_icache_mem_side -->
<g id="edge3" class="edge">
<title>system_membus_slave&#45;&gt;system_cpu_icache_mem_side</title>
<path fill="none" stroke="#000000" d="M501.2043,-357.1376C498.852,-355.9125 496.4392,-354.8421 494,-354 480.1299,-349.2116 240.2173,-356.5316 230,-346 215.2226,-330.7681 224.0223,-175.3629 230,-155 238.8623,-124.8109 260.4023,-95.1276 275.5951,-76.8255"/>
<polygon fill="#000000" stroke="#000000" points="499.5496,-360.2287 509.9036,-362.4747 503.2102,-354.262 499.5496,-360.2287"/>
</g>
<!-- system_cpu_dtb_walker_port -->
<g id="node9" class="node">
<title>system_cpu_dtb_walker_port</title>
<path fill="#7f7c77" stroke="#000000" d="M639,-171.5C639,-171.5 669,-171.5 669,-171.5 675,-171.5 681,-177.5 681,-183.5 681,-183.5 681,-195.5 681,-195.5 681,-201.5 675,-207.5 669,-207.5 669,-207.5 639,-207.5 639,-207.5 633,-207.5 627,-201.5 627,-195.5 627,-195.5 627,-183.5 627,-183.5 627,-177.5 633,-171.5 639,-171.5"/>
<text text-anchor="middle" x="654" y="-185.8" font-family="Arial" font-size="14.00" fill="#000000">port</text>
</g>
<!-- system_membus_slave&#45;&gt;system_cpu_dtb_walker_port -->
<g id="edge6" class="edge">
<title>system_membus_slave&#45;&gt;system_cpu_dtb_walker_port</title>
<path fill="none" stroke="#000000" d="M566.2616,-368.6508C578.0173,-363.3039 590.2642,-355.9091 599,-346 634.9949,-305.1706 647.8193,-239.3266 652.0666,-207.6581"/>
<polygon fill="#000000" stroke="#000000" points="564.8966,-365.4279 557.0156,-372.5089 567.5922,-371.8881 564.8966,-365.4279"/>
</g>
<!-- system_cpu_itb_walker_port -->
<g id="node10" class="node">
<title>system_cpu_itb_walker_port</title>
<path fill="#7f7c77" stroke="#000000" d="M515,-171.5C515,-171.5 545,-171.5 545,-171.5 551,-171.5 557,-177.5 557,-183.5 557,-183.5 557,-195.5 557,-195.5 557,-201.5 551,-207.5 545,-207.5 545,-207.5 515,-207.5 515,-207.5 509,-207.5 503,-201.5 503,-195.5 503,-195.5 503,-183.5 503,-183.5 503,-177.5 509,-171.5 515,-171.5"/>
<text text-anchor="middle" x="530" y="-185.8" font-family="Arial" font-size="14.00" fill="#000000">port</text>
</g>
<!-- system_membus_slave&#45;&gt;system_cpu_itb_walker_port -->
<g id="edge5" class="edge">
<title>system_membus_slave&#45;&gt;system_cpu_itb_walker_port</title>
<path fill="none" stroke="#000000" d="M530,-352.09C530,-312.3133 530,-241.1585 530,-207.7584"/>
<polygon fill="#000000" stroke="#000000" points="526.5001,-352.1861 530,-362.1861 533.5001,-352.1862 526.5001,-352.1861"/>
</g>
<!-- system_cpu_dcache_mem_side -->
<g id="node11" class="node">
<title>system_cpu_dcache_mem_side</title>
<path fill="#94918b" stroke="#000000" d="M617,-40.5C617,-40.5 677,-40.5 677,-40.5 683,-40.5 689,-46.5 689,-52.5 689,-52.5 689,-64.5 689,-64.5 689,-70.5 683,-76.5 677,-76.5 677,-76.5 617,-76.5 617,-76.5 611,-76.5 605,-70.5 605,-64.5 605,-64.5 605,-52.5 605,-52.5 605,-46.5 611,-40.5 617,-40.5"/>
<text text-anchor="middle" x="647" y="-54.8" font-family="Arial" font-size="14.00" fill="#000000">mem_side</text>
</g>
<!-- system_membus_slave&#45;&gt;system_cpu_dcache_mem_side -->
<g id="edge4" class="edge">
<title>system_membus_slave&#45;&gt;system_cpu_dcache_mem_side</title>
<path fill="none" stroke="#000000" d="M567.311,-377.3313C627.4091,-371.8462 740.1511,-359.8325 752,-346 807.2247,-281.5302 786.1314,-232.725 752,-155 736.9684,-120.7697 703.1383,-93.3466 677.9157,-76.6096"/>
<polygon fill="#000000" stroke="#000000" points="566.736,-373.8687 557.0884,-378.2477 567.361,-380.8408 566.736,-373.8687"/>
</g>
<!-- system_cpu_icache_port -->
<g id="node5" class="node">
<title>system_cpu_icache_port</title>
<path fill="#959ead" stroke="#000000" d="M254,-171.5C254,-171.5 322,-171.5 322,-171.5 328,-171.5 334,-177.5 334,-183.5 334,-183.5 334,-195.5 334,-195.5 334,-201.5 328,-207.5 322,-207.5 322,-207.5 254,-207.5 254,-207.5 248,-207.5 242,-201.5 242,-195.5 242,-195.5 242,-183.5 242,-183.5 242,-177.5 248,-171.5 254,-171.5"/>
<text text-anchor="middle" x="288" y="-185.8" font-family="Arial" font-size="14.00" fill="#000000">icache_port</text>
</g>
<!-- system_cpu_icache_cpu_side -->
<g id="node8" class="node">
<title>system_cpu_icache_cpu_side</title>
<path fill="#94918b" stroke="#000000" d="M364,-40.5C364,-40.5 416,-40.5 416,-40.5 422,-40.5 428,-46.5 428,-52.5 428,-52.5 428,-64.5 428,-64.5 428,-70.5 422,-76.5 416,-76.5 416,-76.5 364,-76.5 364,-76.5 358,-76.5 352,-70.5 352,-64.5 352,-64.5 352,-52.5 352,-52.5 352,-46.5 358,-40.5 364,-40.5"/>
<text text-anchor="middle" x="390" y="-54.8" font-family="Arial" font-size="14.00" fill="#000000">cpu_side</text>
</g>
<!-- system_cpu_icache_port&#45;&gt;system_cpu_icache_cpu_side -->
<g id="edge7" class="edge">
<title>system_cpu_icache_port&#45;&gt;system_cpu_icache_cpu_side</title>
<path fill="none" stroke="#000000" d="M303.4801,-171.3982C314.673,-158.1627 330.0417,-139.6837 343,-123 352.6432,-110.5845 362.9708,-96.5044 371.482,-84.674"/>
<polygon fill="#000000" stroke="#000000" points="374.3488,-86.6821 377.3226,-76.5132 368.6564,-82.6081 374.3488,-86.6821"/>
</g>
<!-- system_cpu_dcache_port -->
<g id="node6" class="node">
<title>system_cpu_dcache_port</title>
<path fill="#959ead" stroke="#000000" d="M364,-171.5C364,-171.5 438,-171.5 438,-171.5 444,-171.5 450,-177.5 450,-183.5 450,-183.5 450,-195.5 450,-195.5 450,-201.5 444,-207.5 438,-207.5 438,-207.5 364,-207.5 364,-207.5 358,-207.5 352,-201.5 352,-195.5 352,-195.5 352,-183.5 352,-183.5 352,-177.5 358,-171.5 364,-171.5"/>
<text text-anchor="middle" x="401" y="-185.8" font-family="Arial" font-size="14.00" fill="#000000">dcache_port</text>
</g>
<!-- system_cpu_dcache_cpu_side -->
<g id="node12" class="node">
<title>system_cpu_dcache_cpu_side</title>
<path fill="#94918b" stroke="#000000" d="M523,-40.5C523,-40.5 575,-40.5 575,-40.5 581,-40.5 587,-46.5 587,-52.5 587,-52.5 587,-64.5 587,-64.5 587,-70.5 581,-76.5 575,-76.5 575,-76.5 523,-76.5 523,-76.5 517,-76.5 511,-70.5 511,-64.5 511,-64.5 511,-52.5 511,-52.5 511,-46.5 517,-40.5 523,-40.5"/>
<text text-anchor="middle" x="549" y="-54.8" font-family="Arial" font-size="14.00" fill="#000000">cpu_side</text>
</g>
<!-- system_cpu_dcache_port&#45;&gt;system_cpu_dcache_cpu_side -->
<g id="edge8" class="edge">
<title>system_cpu_dcache_port&#45;&gt;system_cpu_dcache_cpu_side</title>
<path fill="none" stroke="#000000" d="M421.5788,-171.285C447.4246,-148.4079 491.8873,-109.0525 520.8625,-83.4055"/>
<polygon fill="#000000" stroke="#000000" points="523.4277,-85.8091 528.596,-76.5603 518.7882,-80.5674 523.4277,-85.8091"/>
</g>
</g>
</svg>
